<svg id="Layer_1" xmlns="http://www.w3.org/2000/svg" viewBox="0 0 180 78"><style>.st0{fill-rule:evenodd;clip-rule:evenodd;fill:#fff;} .st1{fill:#fff;} .st2{fill:#fff;} .st3{fill-rule:evenodd;clip-rule:evenodd;fill:#fff;}</style><path class="st0" d="M66.9 73.2v-3.6h2.7c1.6 0 2.4.5 2.4 1.7s-.7 1.9-2.2 1.9h-2.9zm0-4.7v-3.2h2.6c1.4 0 2 .5 2 1.5 0 1.1-.7 1.6-2.1 1.6h-2.5v.1zm-1.4 6h4.4c2.2 0 3.5-1.2 3.5-3.1 0-1.3-.7-2.3-2-2.5 1-.4 1.5-1.2 1.5-2.2 0-1.7-1.1-2.5-3.2-2.5h-4.2v10.3z"/><path class="st1" d="M76 67h-1.3v4.9c0 .7 0 1.3.3 1.8.4.6 1.2 1 2.3 1 1.1 0 2-.4 2.5-1.3v1.1H81V67h-1.3v4c0 1.7-.8 2.5-2.2 2.5-1.2 0-1.5-.6-1.5-2V67z"/><path class="st0" d="M82.8 74.5h1.3V67h-1.3v7.5zm0-8.9h1.3v-1.4h-1.3v1.4z"/><path class="st1" d="M85.9 74.5h1.3V64.1h-1.3v10.4z"/><path class="st0" d="M95.6 64.1h-1.2v3.7c-.6-.8-1.4-1.2-2.5-1.2-2 0-3.3 1.5-3.3 4s1.3 4 3.3 4c1 0 1.8-.4 2.5-1.2v1h1.2V64.1zm-1.2 6.6c0 1.9-.8 2.9-2.2 2.9-1.4 0-2.2-1-2.2-2.8 0-1.9.8-3 2.2-3 1.4 0 2.2 1 2.2 2.9zM97.4 74.5h1.3V67h-1.3v7.5zm0-8.9h1.3v-1.4h-1.3v1.4z"/><path class="st1" d="M105.5 74.5h1.3V70v-.4c0-.7 0-1.3-.3-1.8-.4-.7-1.2-1-2.3-1-1.1 0-1.8.4-2.4 1.3V67h-1.2v7.5h1.3v-4.3c0-1.5.8-2.3 2.2-2.3 1.2 0 1.5.6 1.5 2v4.6h-.1z"/><path class="st0" d="M113.9 73.6v1c0 1.4-.6 2-2.2 2-1.3 0-2-.4-2-1.2h-1.2v.1c0 1.4 1.2 2.2 3.2 2.2 2.5 0 3.5-1 3.5-3.3V67H114v1c-.6-.7-1.2-1.2-2.4-1.2-2 0-3.4 1.6-3.4 4 0 2.5 1.4 4 3.4 4 .9-.1 1.7-.5 2.3-1.2zm-2.2-5.8c1.5 0 2.3 1 2.3 2.9s-.7 2.8-2.3 2.8c-1.4 0-2.2-1-2.2-2.9 0-1.7.8-2.8 2.2-2.8z"/><path class="st1" d="M120.6 71.1c.1 2.4 1.6 3.7 4.1 3.7 2.5 0 4-1.3 4-3.3 0-.8-.3-1.5-.9-2-.6-.5-1.4-.7-2.4-.9-2.2-.5-3.1-.6-3.1-1.9 0-1 .9-1.7 2.3-1.7 1.5 0 2.4.8 2.5 2.1h1.3c0-2.1-1.4-3.3-3.7-3.3-2.3 0-3.7 1.3-3.7 3.1s1.2 2.3 3.5 2.9c1.9.4 2.8.6 2.8 1.9 0 1.1-1 1.9-2.6 1.9s-2.7-1-2.7-2.5h-1.4z"/><path class="st0" d="M129.8 70.7c0 2.6 1.3 4 3.6 4s3.6-1.5 3.6-4c0-2.6-1.3-4-3.6-4s-3.6 1.5-3.6 4zm1.3 0c0-1.9.8-2.9 2.3-2.9 1.5 0 2.3 1 2.3 2.9s-.8 2.9-2.3 2.9c-1.5 0-2.3-1-2.3-2.9z"/><path class="st1" d="M143.6 69.5h1.3c-.1-1.7-1.3-2.8-3.2-2.8-2.1 0-3.5 1.5-3.5 4s1.3 4 3.3 4c2 0 3.2-1.1 3.3-2.9h-1.2c-.2 1.2-.9 1.8-2.1 1.8-1.3 0-2.1-1-2.1-2.9s.8-2.9 2.1-2.9 2 .6 2.1 1.7z"/><path class="st0" d="M146.1 74.5h1.3V67h-1.3v7.5zm0-8.9h1.3v-1.4h-1.3v1.4zM154.4 72.1c-.2 1-.9 1.5-1.9 1.5-1.3 0-2.1-.9-2.2-2.5h5.4v-.6c0-2.5-1.3-3.8-3.4-3.8-2.1 0-3.4 1.5-3.4 4.1 0 2.5 1.3 3.9 3.4 3.9 1.8 0 3-1 3.3-2.7h-1.2v.1zm-4.1-2.1c.1-1.4.9-2.2 2.1-2.2 1.3 0 2 .8 2 2.2h-4.1z"/><path class="st1" d="M158.7 72.6V68h1.4v-1h-1.4v-2.1h-1.3V67h-1.1v1h1.1v5c0 1.2.4 1.6 1.6 1.6.3 0 .6 0 1-.1v-1.1h-.7c-.5 0-.6-.2-.6-.8zM166.1 67l-2.1 6-2.1-6.1h-1.4l2.9 8-.3.9c-.2.4-.5.6-.9.6-.3 0-.5 0-.7-.1v1.2c.2.1.5.1.8.1 1.3 0 1.7-.6 2.2-2l3.2-8.7h-1.6v.1zM0 23.7v53.1h53.3V32.5h-5.7v-8.8H0z"/><path class="st2" d="M47.6 0v23.7h9v9h8.7v-9.2h8.8v9.2h6V0H47.6z"/><path class="st1" d="M83.2 23.5h8.5v9h-8.5v-9z"/><path class="st2" d="M65.3 58.7h3.6V46.5l7.2 12.2h3.8V40.9h-3.6v12.2l-7.2-12.2h-3.8v17.8z"/><path class="st3" d="M85.8 50.8c.1-1.8 1.1-2.7 2.6-2.7 1.6 0 2.5.9 2.6 2.7h-5.2zm5.1 3.9c-.4 1-1.2 1.5-2.4 1.5-1.7 0-2.6-1.1-2.7-3.1h8.8v-.9c0-4.5-2.3-7-6.3-7-3.8 0-6.1 2.6-6.1 6.9 0 4.4 2.4 7.1 6.2 7.1 3.1 0 5.4-1.7 6.1-4.4h-3.6v-.1z"/><path class="st2" d="M98.7 58.7h3.6l2-9.4 2.1 9.4h3.5l3.7-13.1h-3.4l-2.2 9.1-1.9-9.1h-3.6l-1.8 9.1-2.1-9.1H95l3.7 13.1zM122.7 53.8c-.2 1.6-1 2.3-2.3 2.3-1.7 0-2.6-1.4-2.6-3.9 0-2.7.8-4.1 2.6-4.1 1.3 0 2.1.8 2.3 2.2h3.5c-.2-3.2-2.4-5.1-5.8-5.1-3.9 0-6.2 2.6-6.2 7s2.3 7 6.1 7c3.4 0 5.7-2.1 6-5.4h-3.6z"/><path class="st3" d="M135.4 52.2v1.2c0 1.9-1.2 3-3.1 3-1.1 0-1.7-.6-1.7-1.6s.5-1.4 1.7-1.8c.6-.1 1.7-.1 3.1-.8zm0 4.9c0 .6.1 1.2.4 1.6h3.7v-.6c-.6-.3-.7-.9-.7-1.8v-7.5c0-2.4-2-3.7-5.7-3.7-3.4 0-5.4 1.7-5.4 4.3v.2h3.3v-.2c0-1 .8-1.6 2.2-1.6 1.5 0 2.2.4 2.2 1.5 0 1.3-.9 1.1-3.7 1.5-3.1.5-4.4 1.6-4.4 4.2 0 2.7 1.5 4.2 4 4.2 1.8 0 3.2-.8 4.1-2.1z"/><path class="st2" d="M140.3 54.4v.1c0 2.8 2.1 4.6 5.8 4.6 4 0 6.2-1.6 6.2-4.6 0-2.4-1.5-3.2-4.5-3.9-2.5-.6-3.6-.7-3.6-1.6 0-.8.6-1.2 2-1.2s2.2.6 2.3 1.8h3.4c-.1-2.8-2.2-4.5-5.7-4.5-3.4 0-5.4 1.7-5.4 4.4 0 2.2 1.5 3.2 4.5 4 2.3.6 3.5.5 3.5 1.7 0 .8-.7 1.3-2.1 1.3-1.8 0-2.7-.6-2.7-2h-3.7v-.1zM159.9 58.8v-2.6h-.9c-.9 0-1.2-.1-1.2-.8V48h2v-2.5h-2V42h-3.5v3.6h-1.7V48h1.7v7.1c0 2.7.6 3.7 3.5 3.7.5.1 1.1 0 2.1 0zM162 58.7h3.6V40.9H162v17.8z"/><path class="st3" d="M171.2 50.8c.1-1.8 1.1-2.7 2.6-2.7 1.6 0 2.5.9 2.6 2.7h-5.2zm5.1 3.9c-.4 1-1.2 1.5-2.4 1.5-1.7 0-2.6-1.1-2.7-3.1h8.8v-.9c0-4.5-2.3-7-6.3-7-3.8 0-6.1 2.6-6.1 6.9 0 4.4 2.4 7.1 6.2 7.1 3.1 0 5.4-1.7 6.1-4.4h-3.6v-.1z"/></svg>